<svg xmlns="http://www.w3.org/2000/svg" width="1080" height="1920" viewBox="0 0 1080 1920"><g fill="none" stroke="#fff" stroke-width="7" stroke-linecap="round" stroke-linejoin="round"><g transform="translate(110.0 120.0) rotate(5.6) scale(1.35)" opacity="1"><path d="M -30 4 C -18 -6 -4 -10 8 -8 C 4 -16 6 -24 14 -28 C 12 -20 14 -14 20 -10 C 28 -8 34 -8 38 -10 C 34 -2 26 4 16 6 C 6 16 -8 18 -22 12 C -18 16 -12 20 -6 22 C -16 24 -26 18 -30 4 Z" /></g><g transform="translate(970.0 130.0) rotate(0.1) scale(1.35)" opacity="1"><path d="M -34 18 C -12 8 12 -2 34 -16 M -20 12 C -24 4 -22 -2 -16 -4 C -10 -4 -8 2 -10 8 Z M 0 2 C -4 -6 -2 -12 4 -14 C 10 -14 12 -8 10 -2 Z M 20 -8 C 16 -16 18 -22 24 -24 C 30 -24 32 -18 30 -12 Z" /></g><g transform="translate(110.0 1790.0) rotate(2.2) scale(1.35)" opacity="1"><path d="M -34 18 C -12 8 12 -2 34 -16 M -20 12 C -24 4 -22 -2 -16 -4 C -10 -4 -8 2 -10 8 Z M 0 2 C -4 -6 -2 -12 4 -14 C 10 -14 12 -8 10 -2 Z M 20 -8 C 16 -16 18 -22 24 -24 C 30 -24 32 -18 30 -12 Z" /></g><g transform="translate(970.0 1800.0) rotate(0.7) scale(1.35)" opacity="1"><path d="M -30 4 C -18 -6 -4 -10 8 -8 C 4 -16 6 -24 14 -28 C 12 -20 14 -14 20 -10 C 28 -8 34 -8 38 -10 C 34 -2 26 4 16 6 C 6 16 -8 18 -22 12 C -18 16 -12 20 -6 22 C -16 24 -26 18 -30 4 Z" /></g><g transform="translate(164.1 99.5) rotate(16.6) scale(0.68)" opacity="0.9312971060629933"><path d="M -30 4 C -18 -6 -4 -10 8 -8 C 4 -16 6 -24 14 -28 C 12 -20 14 -14 20 -10 C 28 -8 34 -8 38 -10 C 34 -2 26 4 16 6 C 6 16 -8 18 -22 12 C -18 16 -12 20 -6 22 C -16 24 -26 18 -30 4 Z" /></g><g transform="translate(361.6 96.6) rotate(-13.2) scale(0.54)" opacity="0.8693438519723713"><path d="M 0 0 m -5 0 a 5 5 0 1 0 10 0 a 5 5 0 1 0 -10 0" /></g><g transform="translate(522.3 112.6) rotate(20.4) scale(0.77)" opacity="0.7852432150626555"><path d="M 0 0 m -5 0 a 5 5 0 1 0 10 0 a 5 5 0 1 0 -10 0" /></g><g transform="translate(748.3 89.8) rotate(-9.4) scale(0.77)" opacity="0.7783160228980704"><path d="M -34 18 C -12 8 12 -2 34 -16 M -20 12 C -24 4 -22 -2 -16 -4 C -10 -4 -8 2 -10 8 Z M 0 2 C -4 -6 -2 -12 4 -14 C 10 -14 12 -8 10 -2 Z M 20 -8 C 16 -16 18 -22 24 -24 C 30 -24 32 -18 30 -12 Z" /></g><g transform="translate(923.7 127.4) rotate(-12.9) scale(0.62)" opacity="0.9890466890297829"><path d="M 0 -16 C 1 -8 2 -3 4 -1 C 7 1 12 2 16 2 C 11 4 7 6 4 8 C 2 11 1 15 0 19 C -1 13 -3 8 -5 6 C -8 4 -12 3 -16 2 C -11 0 -7 -2 -4 -4 C -2 -7 -1 -11 0 -16 Z" /></g><g transform="translate(146.3 1802.8) rotate(-5.1) scale(0.57)" opacity="0.8843982962192967"><path d="M 0 -16 C 1 -8 2 -3 4 -1 C 7 1 12 2 16 2 C 11 4 7 6 4 8 C 2 11 1 15 0 19 C -1 13 -3 8 -5 6 C -8 4 -12 3 -16 2 C -11 0 -7 -2 -4 -4 C -2 -7 -1 -11 0 -16 Z" /></g><g transform="translate(335.5 1832.8) rotate(4.8) scale(0.81)" opacity="0.9647820924408733"><path d="M 0 0 m -5 0 a 5 5 0 1 0 10 0 a 5 5 0 1 0 -10 0" /></g><g transform="translate(725.6 1822.4) rotate(-19.2) scale(0.73)" opacity="0.9758594805840402"><path d="M -34 18 C -12 8 12 -2 34 -16 M -20 12 C -24 4 -22 -2 -16 -4 C -10 -4 -8 2 -10 8 Z M 0 2 C -4 -6 -2 -12 4 -14 C 10 -14 12 -8 10 -2 Z M 20 -8 C 16 -16 18 -22 24 -24 C 30 -24 32 -18 30 -12 Z" /></g><g transform="translate(918.7 1812.8) rotate(-9.5) scale(0.76)" opacity="0.8876354418462142"><path d="M -34 18 C -12 8 12 -2 34 -16 M -20 12 C -24 4 -22 -2 -16 -4 C -10 -4 -8 2 -10 8 Z M 0 2 C -4 -6 -2 -12 4 -14 C 10 -14 12 -8 10 -2 Z M 20 -8 C 16 -16 18 -22 24 -24 C 30 -24 32 -18 30 -12 Z" /></g><g transform="translate(58.0 298.7) rotate(15.6) scale(0.62)" opacity="0.7957469245186075"><path d="M -30 4 C -18 -6 -4 -10 8 -8 C 4 -16 6 -24 14 -28 C 12 -20 14 -14 20 -10 C 28 -8 34 -8 38 -10 C 34 -2 26 4 16 6 C 6 16 -8 18 -22 12 C -18 16 -12 20 -6 22 C -16 24 -26 18 -30 4 Z" /></g><g transform="translate(86.0 680.8) rotate(13.0) scale(0.89)" opacity="0.8438743251608685"><path d="M -34 18 C -12 8 12 -2 34 -16 M -20 12 C -24 4 -22 -2 -16 -4 C -10 -4 -8 2 -10 8 Z M 0 2 C -4 -6 -2 -12 4 -14 C 10 -14 12 -8 10 -2 Z M 20 -8 C 16 -16 18 -22 24 -24 C 30 -24 32 -18 30 -12 Z" /></g><g transform="translate(53.2 909.8) rotate(-10.1) scale(0.60)" opacity="0.9875166280660778"><path d="M -30 4 C -18 -6 -4 -10 8 -8 C 4 -16 6 -24 14 -28 C 12 -20 14 -14 20 -10 C 28 -8 34 -8 38 -10 C 34 -2 26 4 16 6 C 6 16 -8 18 -22 12 C -18 16 -12 20 -6 22 C -16 24 -26 18 -30 4 Z" /></g><g transform="translate(71.2 1099.9) rotate(1.6) scale(0.54)" opacity="0.8464869504794478"><path d="M -30 4 C -18 -6 -4 -10 8 -8 C 4 -16 6 -24 14 -28 C 12 -20 14 -14 20 -10 C 28 -8 34 -8 38 -10 C 34 -2 26 4 16 6 C 6 16 -8 18 -22 12 C -18 16 -12 20 -6 22 C -16 24 -26 18 -30 4 Z" /></g><g transform="translate(82.3 1283.0) rotate(15.4) scale(0.72)" opacity="0.8122124701971187"><path d="M -30 4 C -18 -6 -4 -10 8 -8 C 4 -16 6 -24 14 -28 C 12 -20 14 -14 20 -10 C 28 -8 34 -8 38 -10 C 34 -2 26 4 16 6 C 6 16 -8 18 -22 12 C -18 16 -12 20 -6 22 C -16 24 -26 18 -30 4 Z" /></g><g transform="translate(995.7 513.0) rotate(-7.3) scale(0.93)" opacity="0.9420868091983721"><path d="M 0 -16 C 1 -8 2 -3 4 -1 C 7 1 12 2 16 2 C 11 4 7 6 4 8 C 2 11 1 15 0 19 C -1 13 -3 8 -5 6 C -8 4 -12 3 -16 2 C -11 0 -7 -2 -4 -4 C -2 -7 -1 -11 0 -16 Z" /></g><g transform="translate(1009.7 685.9) rotate(4.7) scale(0.89)" opacity="0.7259101394331082"><path d="M 0 -16 C 1 -8 2 -3 4 -1 C 7 1 12 2 16 2 C 11 4 7 6 4 8 C 2 11 1 15 0 19 C -1 13 -3 8 -5 6 C -8 4 -12 3 -16 2 C -11 0 -7 -2 -4 -4 C -2 -7 -1 -11 0 -16 Z" /></g><g transform="translate(997.3 1072.3) rotate(19.9) scale(0.91)" opacity="0.7448698796564712"><path d="M 0 0 m -5 0 a 5 5 0 1 0 10 0 a 5 5 0 1 0 -10 0" /></g><g transform="translate(997.4 1270.1) rotate(-10.6) scale(0.79)" opacity="0.977891790214926"><path d="M -30 4 C -18 -6 -4 -10 8 -8 C 4 -16 6 -24 14 -28 C 12 -20 14 -14 20 -10 C 28 -8 34 -8 38 -10 C 34 -2 26 4 16 6 C 6 16 -8 18 -22 12 C -18 16 -12 20 -6 22 C -16 24 -26 18 -30 4 Z" /></g><g transform="translate(1007.2 1481.0) rotate(-21.1) scale(0.69)" opacity="0.7025314206024631"><path d="M -30 4 C -18 -6 -4 -10 8 -8 C 4 -16 6 -24 14 -28 C 12 -20 14 -14 20 -10 C 28 -8 34 -8 38 -10 C 34 -2 26 4 16 6 C 6 16 -8 18 -22 12 C -18 16 -12 20 -6 22 C -16 24 -26 18 -30 4 Z" /></g></g></svg>
